<svg xmlns="http://www.w3.org/2000/svg" version="1.1" xmlns:xlink="http://www.w3.org/1999/xlink" xmlns:svgjs="http://svgjs.com/svgjs" width="1440" height="560" preserveAspectRatio="none" viewBox="0 0 1440 560"><g mask="url(&quot;#SvgjsMask1071&quot;)" fill="none"><rect width="1440" height="560" x="0" y="0" fill="rgba(186, 230, 253, 1)"></rect><path d="M800.432,686.752C843.121,686.232,877.903,655.029,897.548,617.125C915.602,582.29,912.811,541.478,893.395,507.384C873.757,472.902,840.109,447.203,800.432,446.596C759.77,445.974,722.966,469.372,702.412,504.463C681.624,539.953,679.655,583.315,699.134,619.54C719.703,657.792,757.003,687.281,800.432,686.752" fill="rgba(131, 197, 231, 0.44)" class="triangle-float3"></path><path d="M1003.991,488.933C1028.186,489.679,1054.755,485.848,1067.471,465.251C1080.664,443.883,1074.591,416.837,1061.873,395.183C1049.343,373.85,1028.731,357.178,1003.991,357.172C979.242,357.166,957.93,373.437,946.06,395.154C934.684,415.966,934.482,441.357,946.947,461.535C958.829,480.77,981.393,488.236,1003.991,488.933" fill="rgba(131, 197, 231, 0.44)" class="triangle-float1"></path><path d="M1319.447,709.861C1362.305,708.748,1402.842,687.56,1423.421,649.95C1443.262,613.689,1435.691,570.533,1415.38,534.534C1394.648,497.79,1361.622,466.775,1319.447,465.671C1275.59,464.523,1236.946,491.635,1214.402,529.272C1191.156,568.083,1182.937,616.497,1205.684,655.602C1228.325,694.526,1274.432,711.03,1319.447,709.861" fill="rgba(131, 197, 231, 0.44)" class="triangle-float1"></path><path d="M234.776,99.154C260.512,98.377,285.557,86.454,297.488,63.637C308.716,42.165,301.65,16.765,288.5,-3.586C276.585,-22.026,256.697,-32.215,234.776,-33.416C210.143,-34.766,183.781,-30.407,169.783,-10.093C153.999,12.813,150.926,43.725,165.148,67.631C179.109,91.098,207.482,99.978,234.776,99.154" fill="rgba(131, 197, 231, 0.44)" class="triangle-float3"></path><path d="M647.758,201.836C672.929,202.765,697.846,190.926,710.107,168.924C722.094,147.415,716.184,121.846,704.377,100.238C691.942,77.482,673.681,54.152,647.758,54.821C622.49,55.473,607.279,80.423,595.981,103.033C586.137,122.732,582.681,145.091,592.903,164.597C603.898,185.578,624.087,200.962,647.758,201.836" fill="rgba(131, 197, 231, 0.44)" class="triangle-float1"></path><path d="M392.309,195.432C422.412,193.524,444.912,171.256,460.215,145.263C475.81,118.774,486.978,86.89,472.018,60.037C456.763,32.655,423.608,21.678,392.309,23.375C363.893,24.916,341.687,44.009,326.287,67.94C309.086,94.67,293.033,126.709,307.65,154.935C323.068,184.708,358.848,197.553,392.309,195.432" fill="rgba(131, 197, 231, 0.44)" class="triangle-float3"></path></g><defs><mask id="SvgjsMask1071"><rect width="1440" height="560" fill="#ffffff"></rect></mask><style>
            @keyframes float1 {
                0%{transform: translate(0, 0)}
                50%{transform: translate(-10px, 0)}
                100%{transform: translate(0, 0)}
            }

            .triangle-float1 {
                animation: float1 5s infinite;
            }

            @keyframes float2 {
                0%{transform: translate(0, 0)}
                50%{transform: translate(-5px, -5px)}
                100%{transform: translate(0, 0)}
            }

            .triangle-float2 {
                animation: float2 4s infinite;
            }

            @keyframes float3 {
                0%{transform: translate(0, 0)}
                50%{transform: translate(0, -10px)}
                100%{transform: translate(0, 0)}
            }

            .triangle-float3 {
                animation: float3 6s infinite;
            }
        </style></defs></svg>