<?xml version="1.0" encoding="UTF-8" standalone="no"?>
<svg
   xmlns:dc="http://purl.org/dc/elements/1.1/"
   xmlns:cc="http://creativecommons.org/ns#"
   xmlns:rdf="http://www.w3.org/1999/02/22-rdf-syntax-ns#"
   xmlns:svg="http://www.w3.org/2000/svg"
   xmlns="http://www.w3.org/2000/svg"
   xmlns:sodipodi="http://sodipodi.sourceforge.net/DTD/sodipodi-0.dtd"
   xmlns:inkscape="http://www.inkscape.org/namespaces/inkscape"
   version="1.1"
   id="svg2"
   xml:space="preserve"
   width="3333.3333"
   height="3333.3333"
   viewBox="0 0 3333.3333 3333.3333"
   sodipodi:docname="bwink_ind_01_single_05.eps"><metadata
     id="metadata8"><rdf:RDF><cc:Work
         rdf:about=""><dc:format>image/svg+xml</dc:format><dc:type
           rdf:resource="http://purl.org/dc/dcmitype/StillImage" /></cc:Work></rdf:RDF></metadata><defs
     id="defs6" /><sodipodi:namedview
     pagecolor="#ffffff"
     bordercolor="#666666"
     borderopacity="1"
     objecttolerance="10"
     gridtolerance="10"
     guidetolerance="10"
     inkscape:pageopacity="0"
     inkscape:pageshadow="2"
     inkscape:window-width="640"
     inkscape:window-height="480"
     id="namedview4" /><g
     id="g10"
     inkscape:groupmode="layer"
     inkscape:label="ink_ext_XXXXXX"
     transform="matrix(1.3333333,0,0,-1.3333333,0,3333.3333)"><g
       id="g12"
       transform="scale(0.1)"><path
         d="M 25000,0 H 0 V 25000 H 25000 V 0"
         style="fill:#ffffff;fill-opacity:1;fill-rule:nonzero;stroke:none"
         id="path14" /><path
         d="m 10512.8,21564.3 v -4540.9 c 0,-379.9 -305.4,-687.9 -682.12,-687.9 h -402.79 v 4984.9 c -141.21,-39.6 -281.36,-82.1 -420.07,-127.6 V 16335.5 H 7858.36 v 4392.2 c -143.14,-70.2 -283.3,-144.3 -420.07,-222.2 v -4170 H 6271.82 V 19662 c -207.32,-191.4 -397.8,-396.7 -568.24,-616.3 V 5005.1 C 5884.28,4893.2 6073.9,4783 6271.82,4676 v 11243.2 h 3628.6 c 566.28,0 1025.28,462.9 1025.28,1033.9 v 4674.7 c -137.7,-18.6 -275.4,-39.8 -412.9,-63.5"
         style="fill:#ffffff;fill-opacity:1;fill-rule:nonzero;stroke:none"
         id="path16" /><path
         d="M 7438.29,16313.3 H 6271.82 c -12.27,0 -22.23,10 -22.23,22.2 V 19662 c 0,12.3 9.96,22.2 22.23,22.2 12.27,0 22.22,-9.9 22.22,-22.2 v -3304.3 h 1122.03 v 4147.8 c 0,12.3 9.95,22.2 22.22,22.2 12.28,0 22.22,-9.9 22.22,-22.2 v -4170 c 0,-12.2 -9.94,-22.2 -22.22,-22.2"
         style="fill:#000000;fill-opacity:1;fill-rule:nonzero;stroke:none"
         id="path18" /><path
         d="M 9007.82,16313.3 H 7858.36 c -12.27,0 -22.22,10 -22.22,22.2 v 4392.2 c 0,12.3 9.95,22.2 22.22,22.2 12.27,0 22.23,-9.9 22.23,-22.2 v -4370 H 8985.6 v 4835.1 c 0,12.3 9.95,22.3 22.22,22.3 12.27,0 22.22,-10 22.22,-22.3 v -4857.3 c 0,-12.2 -9.95,-22.2 -22.22,-22.2"
         style="fill:#000000;fill-opacity:1;fill-rule:nonzero;stroke:none"
         id="path20" /><path
         d="m 9830.68,16313.3 h -402.79 c -12.27,0 -22.22,10 -22.22,22.2 v 4984.9 c 0,12.3 9.95,22.2 22.22,22.2 12.27,0 22.22,-9.9 22.22,-22.2 v -4962.7 h 380.57 c 363.92,0 659.92,298.6 659.92,665.7 v 4540.9 c 0,12.3 10,22.2 22.2,22.2 12.3,0 22.3,-9.9 22.3,-22.2 v -4540.9 c 0,-391.6 -316,-710.1 -704.42,-710.1"
         style="fill:#000000;fill-opacity:1;fill-rule:nonzero;stroke:none"
         id="path22" /><path
         d="m 6271.82,4653.8 c -3.64,0 -7.27,0.8 -10.57,2.6 -193.77,104.9 -385.33,215.8 -569.37,329.8 -6.53,4.1 -10.52,11.2 -10.52,18.9 v 14040.6 c 0,12.3 9.95,22.2 22.22,22.2 12.27,0 22.22,-9.9 22.22,-22.2 V 5017.5 c 169.67,-104.8 345.67,-207 523.79,-304.2 v 11205.9 c 0,12.3 9.96,22.2 22.23,22.2 h 3628.6 c 553.08,0 1003.08,453.9 1003.08,1011.7 v 4674.7 c 0,12.3 9.9,22.2 22.2,22.2 12.3,0 22.2,-9.9 22.2,-22.2 v -4674.7 c 0,-582.3 -469.9,-1056.1 -1047.48,-1056.1 H 6294.04 V 4676 c 0,-7.9 -4.13,-15.1 -10.85,-19.1 -3.5,-2.1 -7.43,-3.1 -11.37,-3.1"
         style="fill:#000000;fill-opacity:1;fill-rule:nonzero;stroke:none"
         id="path24" /><path
         d="m 9009.16,18978.6 h 891.9 v 306.6 h -891.9 v -306.6"
         style="fill:#ffffff;fill-opacity:1;fill-rule:nonzero;stroke:none"
         id="path26" /><path
         d="m 8797.18,18644.2 h 815.92 v 975.4 h -815.92 v -975.4"
         style="fill:#ffffff;fill-opacity:1;fill-rule:nonzero;stroke:none"
         id="path28" /><path
         d="m 10103,18661.5 v 952.3 h -251.93 v -952.3 H 10103"
         style="fill:#ffffff;fill-opacity:1;fill-rule:nonzero;stroke:none"
         id="path30" /><path
         d="m 11458.3,19285.2 h -288 v 334.4 h -815.9 v -975.4 h 815.9 v 334.4 h 288 v 306.6"
         style="fill:#ffffff;fill-opacity:1;fill-rule:nonzero;stroke:none"
         id="path32" /><path
         d="m 10376.6,18666.4 h 771.5 v 312.2 c 0,12.3 9.9,22.2 22.2,22.2 h 265.8 v 262.2 h -265.8 c -12.3,0 -22.2,9.9 -22.2,22.2 v 312.2 h -771.5 z m 793.7,-44.4 h -815.9 c -12.3,0 -22.2,9.9 -22.2,22.2 v 975.4 c 0,12.3 9.9,22.2 22.2,22.2 h 815.9 c 12.3,0 22.2,-9.9 22.2,-22.2 v -312.2 h 265.8 c 12.3,0 22.2,-10 22.2,-22.2 v -306.6 c 0,-12.3 -9.9,-22.2 -22.2,-22.2 h -265.8 v -312.2 c 0,-12.3 -9.9,-22.2 -22.2,-22.2"
         style="fill:#000000;fill-opacity:1;fill-rule:nonzero;stroke:none"
         id="path34" /><path
         d="m 11660.3,18661.5 v 952.3 h -252 v -952.3 h 252"
         style="fill:#000000;fill-opacity:1;fill-rule:nonzero;stroke:none"
         id="path36" /><path
         d="m 9901.06,19285.2 h -287.97 v 334.4 h -815.9 v -975.4 h 815.9 v 334.4 h 287.97 v 306.6"
         style="fill:#ffffff;fill-opacity:1;fill-rule:nonzero;stroke:none"
         id="path38" /><path
         d="m 8819.4,18666.4 h 771.47 v 312.2 c 0,12.3 9.95,22.2 22.22,22.2 h 265.75 v 262.2 h -265.75 c -12.27,0 -22.22,9.9 -22.22,22.2 v 312.2 H 8819.4 Z m 793.69,-44.4 h -815.9 c -12.27,0 -22.22,9.9 -22.22,22.2 v 975.4 c 0,12.3 9.95,22.2 22.22,22.2 h 815.9 c 12.27,0 22.22,-9.9 22.22,-22.2 v -312.2 h 265.75 c 12.27,0 22.22,-10 22.22,-22.2 v -306.6 c 0,-12.3 -9.95,-22.2 -22.22,-22.2 h -265.75 v -312.2 c 0,-12.3 -9.95,-22.2 -22.22,-22.2"
         style="fill:#000000;fill-opacity:1;fill-rule:nonzero;stroke:none"
         id="path40" /><path
         d="m 10103,18661.5 v 952.3 h -251.93 v -952.3 H 10103"
         style="fill:#000000;fill-opacity:1;fill-rule:nonzero;stroke:none"
         id="path42" /><path
         d="m 8331.53,19285.2 h -287.97 v 334.4 h -815.91 v -975.4 h 815.91 v 334.4 h 287.97 v 306.6"
         style="fill:#ffffff;fill-opacity:1;fill-rule:nonzero;stroke:none"
         id="path44" /><path
         d="m 7249.87,18666.4 h 771.48 v 312.2 c 0,12.3 9.94,22.2 22.21,22.2 h 265.76 v 262.2 h -265.76 c -12.27,0 -22.21,9.9 -22.21,22.2 v 312.2 h -771.48 z m 793.69,-44.4 h -815.91 c -12.27,0 -22.22,9.9 -22.22,22.2 v 975.4 c 0,12.3 9.95,22.2 22.22,22.2 h 815.91 c 12.27,0 22.23,-9.9 22.23,-22.2 v -312.2 h 265.74 c 12.27,0 22.22,-10 22.22,-22.2 v -306.6 c 0,-12.3 -9.95,-22.2 -22.22,-22.2 h -265.74 v -312.2 c 0,-12.3 -9.96,-22.2 -22.23,-22.2"
         style="fill:#000000;fill-opacity:1;fill-rule:nonzero;stroke:none"
         id="path46" /><path
         d="m 8533.51,18661.5 v 952.3 h -251.97 v -952.3 h 251.97"
         style="fill:#000000;fill-opacity:1;fill-rule:nonzero;stroke:none"
         id="path48" /><path
         d="M 6690.77,13564.6 H 6402.8 v 334.4 h -815.92 v -975.4 h 815.92 v 334.4 h 287.97 v 306.6"
         style="fill:#ffffff;fill-opacity:1;fill-rule:nonzero;stroke:none"
         id="path50" /><path
         d="m 5609.11,12945.8 h 771.47 v 312.2 c 0,12.3 9.95,22.2 22.22,22.2 h 265.75 v 262.2 H 6402.8 c -12.27,0 -22.22,9.9 -22.22,22.2 v 312.2 h -771.47 z m 793.69,-44.4 h -815.92 c -12.27,0 -22.21,9.9 -22.21,22.2 v 975.4 c 0,12.3 9.94,22.2 22.21,22.2 h 815.92 c 12.27,0 22.22,-9.9 22.22,-22.2 v -312.2 h 265.75 c 12.27,0 22.22,-9.9 22.22,-22.2 V 13258 c 0,-12.3 -9.95,-22.2 -22.22,-22.2 h -265.75 v -312.2 c 0,-12.3 -9.95,-22.2 -22.22,-22.2"
         style="fill:#000000;fill-opacity:1;fill-rule:nonzero;stroke:none"
         id="path52" /><path
         d="m 6892.75,12941 v 952.2 H 6640.78 V 12941 h 251.97"
         style="fill:#000000;fill-opacity:1;fill-rule:nonzero;stroke:none"
         id="path54" /><path
         d="m 20159.1,5450 c 399.2,424.3 754.7,990.6 1043.2,1678.7 v 10275 c 0,1131.9 -379.2,1404 -1720.1,1458.4 H 17611 c -215.5,0 -390.2,176.2 -390.2,393.5 v 1275.1 c -340,180.5 -688.9,340.8 -1043.2,480.6 v -1874 c 0,-733 589.2,-1327.1 1316.1,-1327.1 h 2275.2 c 215.5,0 390.2,-176.2 390.2,-393.5 V 5450"
         style="fill:#000000;fill-opacity:1;fill-rule:nonzero;stroke:none"
         id="path56" /><path
         d="m 19134.8,19052.6 h 751.2 c 829.8,0 1505,-680.8 1505,-1517.6 v -797.9 h -1421 v 679.6 c 0,112 -90.3,203 -201.3,203 h -633.8 l -0.1,1432.9"
         style="fill:#000000;fill-opacity:1;fill-rule:nonzero;stroke:none"
         id="path58" /><path
         d="m 21129.7,16983 c -12.2,0 -22.2,9.9 -22.2,22.2 v 613.2 c 0,630.7 -508.8,1143.9 -1134.2,1143.9 H 19396 c -12.2,0 -22.2,9.9 -22.2,22.2 0,12.3 10,22.2 22.2,22.2 h 577.3 c 649.9,0 1178.7,-533.1 1178.7,-1188.3 v -613.2 c 0,-12.3 -10,-22.2 -22.3,-22.2"
         style="fill:#ffffff;fill-opacity:1;fill-rule:nonzero;stroke:none"
         id="path60" /><path
         d="m 17409.5,19995.7 v -740.1 c 0,-112 90.3,-203 201.3,-203 h 806.6 l 0.1,-1432.9 h -924 c -829.9,0 -1505,680.8 -1505,1517.6 v 858.4 h 1421"
         style="fill:#000000;fill-opacity:1;fill-rule:nonzero;stroke:none"
         id="path62" /><path
         d="m 18226.1,17835.8 c -12.3,0 -22.3,10 -22.3,22.2 v 946.7 h -545.2 c -264.3,0 -479.4,216.7 -479.4,483.2 v 492.5 c 0,12.3 10,22.2 22.3,22.2 12.3,0 22.2,-9.9 22.2,-22.2 v -492.5 c 0,-242 195.1,-438.8 434.9,-438.8 h 567.5 c 12.2,0 22.2,-9.9 22.2,-22.2 V 17858 c 0,-12.2 -10,-22.2 -22.2,-22.2"
         style="fill:#ffffff;fill-opacity:1;fill-rule:nonzero;stroke:none"
         id="path64" /><path
         d="m 20159.1,5450 c 399.2,424.3 754.7,990.6 1043.2,1678.7 v 10275 c 0,1131.9 -379.2,1404 -1720.1,1458.4 H 17611 c -215.5,0 -390.2,176.2 -390.2,393.5 v 1275.1 c -340,180.5 -688.9,340.8 -1043.2,480.6 v -1874 c 0,-733 589.2,-1327.1 1316.1,-1327.1 h 2275.2 c 215.5,0 390.2,-176.2 390.2,-393.5 V 5450"
         style="fill:#000000;fill-opacity:1;fill-rule:nonzero;stroke:none"
         id="path66" /><path
         d="m 20980.1,7041 c -12.3,0 -22.2,9.9 -22.2,22.2 v 10183.6 c 0,580.6 -104.5,914.5 -349.2,1116.2 -240.4,198.2 -631.4,291 -1349.6,320.1 h -1870.3 c -227.4,0 -412.4,186.4 -412.4,415.6 v 1316.2 c 0,12.3 9.9,22.2 22.2,22.2 12.3,0 22.2,-9.9 22.2,-22.2 v -1316.2 c 0,-204.7 165.1,-371.2 368,-371.2 H 19260 c 1384.2,-56.1 1742.3,-360.6 1742.3,-1480.7 V 7063.2 c 0,-12.3 -9.9,-22.2 -22.2,-22.2"
         style="fill:#ffffff;fill-opacity:1;fill-rule:nonzero;stroke:none"
         id="path68" /><path
         d="m 19134.8,19052.6 h 751.2 c 829.8,0 1505,-680.8 1505,-1517.6 v -797.9 h -1421 v 679.6 c 0,112 -90.3,203 -201.3,203 h -633.8 l -0.1,1432.9"
         style="fill:#000000;fill-opacity:1;fill-rule:nonzero;stroke:none"
         id="path70" /><path
         d="m 19992.2,16759.3 h 1376.6 v 775.7 c 0,824.6 -665.2,1495.4 -1482.8,1495.4 h -728.9 V 17642 h 611.6 c 123.2,0 223.5,-101.1 223.5,-225.3 z m 1398.8,-44.4 h -1421 c -12.3,0 -22.2,9.9 -22.2,22.2 v 679.6 c 0,99.7 -80.4,180.8 -179.1,180.8 h -633.8 c -12.3,0 -22.2,10 -22.2,22.3 l -0.1,1432.8 c 0,5.9 2.4,11.5 6.5,15.7 4.2,4.1 9.8,6.5 15.7,6.5 h 751.2 c 842.1,0 1527.2,-690.7 1527.2,-1539.8 v -797.9 c 0,-12.3 -9.9,-22.2 -22.2,-22.2"
         style="fill:#ffffff;fill-opacity:1;fill-rule:nonzero;stroke:none"
         id="path72" /><path
         d="m 21129.7,16983 c -12.2,0 -22.2,9.9 -22.2,22.2 v 613.2 c 0,630.7 -508.8,1143.9 -1134.2,1143.9 H 19396 c -12.2,0 -22.2,9.9 -22.2,22.2 0,12.3 10,22.2 22.2,22.2 h 577.3 c 649.9,0 1178.7,-533.1 1178.7,-1188.3 v -613.2 c 0,-12.3 -10,-22.2 -22.3,-22.2"
         style="fill:#ffffff;fill-opacity:1;fill-rule:nonzero;stroke:none"
         id="path74" /><path
         d="m 17409.5,19995.7 v -740.1 c 0,-112 90.3,-203 201.3,-203 h 806.6 l 0.1,-1432.9 h -924 c -829.9,0 -1505,680.8 -1505,1517.6 v 858.4 h 1421"
         style="fill:#000000;fill-opacity:1;fill-rule:nonzero;stroke:none"
         id="path76" /><path
         d="m 16010.7,19973.5 v -836.2 c 0,-824.5 665.2,-1495.3 1482.8,-1495.3 h 901.7 v 1388.4 h -784.4 c -123.3,0 -223.5,101 -223.5,225.2 v 717.9 z m 2406.8,-2376 h -924 c -842.1,0 -1527.2,690.8 -1527.2,1539.8 v 858.4 c 0,12.3 9.9,22.2 22.2,22.2 h 1421 c 12.3,0 22.2,-9.9 22.2,-22.2 v -740.1 c 0,-99.7 80.4,-180.8 179.1,-180.8 h 806.6 c 12.3,0 22.2,-10 22.2,-22.2 l 0.1,-1432.8 c 0,-5.9 -2.4,-11.6 -6.5,-15.8 -4.2,-4.1 -9.8,-6.5 -15.7,-6.5"
         style="fill:#ffffff;fill-opacity:1;fill-rule:nonzero;stroke:none"
         id="path78" /><path
         d="m 18226.1,17835.8 c -12.3,0 -22.3,10 -22.3,22.2 v 946.7 h -545.2 c -264.3,0 -479.4,216.7 -479.4,483.2 v 492.5 c 0,12.3 10,22.2 22.3,22.2 12.3,0 22.2,-9.9 22.2,-22.2 v -492.5 c 0,-242 195.1,-438.8 434.9,-438.8 h 567.5 c 12.2,0 22.2,-9.9 22.2,-22.2 V 17858 c 0,-12.2 -10,-22.2 -22.2,-22.2"
         style="fill:#ffffff;fill-opacity:1;fill-rule:nonzero;stroke:none"
         id="path80" /><path
         d="m 19495.8,12367.5 h 525.8 v 197.2 c 0,98 -79.4,177.4 -177.3,177.4 h -171.2 c -98,0 -177.3,-79.4 -177.3,-177.4 v -197.2"
         style="fill:#ffffff;fill-opacity:1;fill-rule:nonzero;stroke:none"
         id="path82" /><path
         d="m 19518,12389.7 h 481.3 v 175 c 0,85.6 -69.5,155.1 -155,155.1 h -171.2 c -85.5,0 -155.1,-69.5 -155.1,-155.1 z m 503.6,-44.5 h -525.8 c -12.3,0 -22.3,10 -22.3,22.3 v 197.2 c 0,110.1 89.5,199.6 199.6,199.6 h 171.2 c 110,0 199.5,-89.5 199.5,-199.6 v -197.2 c 0,-12.3 -10,-22.3 -22.2,-22.3"
         style="fill:#000000;fill-opacity:1;fill-rule:nonzero;stroke:none"
         id="path84" /><path
         d="m 18729.9,8896.2 h 1634.6 V 12233 c 0,168.7 -135.6,305.4 -302.9,305.4 H 19465 c -222.4,0 -408.2,-170.5 -429.2,-393.6 l -305.9,-3248.6"
         style="fill:#ffffff;fill-opacity:1;fill-rule:nonzero;stroke:none"
         id="path86" /><path
         d="m 18754.3,8918.4 h 1588 V 12233 c 0,156.2 -125.9,283.2 -280.7,283.2 H 19465 c -212.1,0 -387.1,-160.6 -407.1,-373.5 z m 1610.2,-44.5 h -1634.6 c -6.3,0 -12.2,2.7 -16.4,7.3 -4.3,4.6 -6.3,10.8 -5.7,17 l 305.8,3248.6 c 22.2,235.9 216.3,413.8 451.4,413.8 h 596.6 c 179.3,0 325.1,-146.9 325.1,-327.6 V 8896.2 c 0,-12.3 -9.9,-22.3 -22.2,-22.3"
         style="fill:#000000;fill-opacity:1;fill-rule:nonzero;stroke:none"
         id="path88" /><path
         d="m 19030,9116.6 c -0.7,0 -1.4,0 -2.1,0.1 -12.2,1.1 -21.2,11.9 -20.1,24.2 l 259.3,2827.4 c 17.2,183.3 167.9,321.4 350.5,321.4 h 405.6 c 12.3,0 22.2,-10 22.2,-22.2 0,-12.3 -9.9,-22.2 -22.2,-22.2 h -405.6 c -159.5,0 -291.2,-120.9 -306.3,-281.1 l -259.2,-2827.4 c -1.1,-11.5 -10.8,-20.2 -22.1,-20.2"
         style="fill:#000000;fill-opacity:1;fill-rule:nonzero;stroke:none"
         id="path90" /><path
         d="m 18130.4,7258.3 1133.5,-659.8 377.2,658.8 -1133.5,659.9 -377.2,-658.9"
         style="fill:#ffffff;fill-opacity:1;fill-rule:nonzero;stroke:none"
         id="path92" /><path
         d="m 18160.6,7266.5 1095.1,-637.6 355.1,620.3 -1095,637.5 z m 1103.3,-690.2 c -3.9,0 -7.8,1 -11.2,3 l -1133.5,659.9 c -10.5,6.1 -14.2,19.6 -8.1,30.2 l 377.2,658.8 c 3,5.1 7.8,8.9 13.6,10.4 5.6,1.6 11.7,0.8 16.9,-2.2 l 1133.5,-659.9 c 10.5,-6.1 14.1,-19.6 8.1,-30.3 l -377.2,-658.8 c -3,-5.1 -7.8,-8.9 -13.6,-10.4 -1.9,-0.5 -3.8,-0.7 -5.7,-0.7"
         style="fill:#000000;fill-opacity:1;fill-rule:nonzero;stroke:none"
         id="path94" /><path
         d="m 19061.9,6566 1238.5,-721 506.1,883.9 -1238.5,721 -506.1,-883.9"
         style="fill:#000000;fill-opacity:1;fill-rule:nonzero;stroke:none"
         id="path96" /><path
         d="m 20512.7,6625.2 c -3.8,0 -7.6,1 -11.1,3 l -878.1,511.3 c -10.7,6.1 -14.2,19.7 -8.1,30.3 6.2,10.7 19.8,14.3 30.4,8.1 l 878.1,-511.2 c 10.6,-6.2 14.2,-19.8 8.1,-30.4 -4.2,-7.1 -11.6,-11.1 -19.3,-11.1"
         style="fill:#ffffff;fill-opacity:1;fill-rule:nonzero;stroke:none"
         id="path98" /><path
         d="m 15472.1,5532.2 545.8,2454.6 2243.3,494.8 v 189.8 l 1886.1,-86.5 -1417.4,-1202.5 V 5532.2 h -3257.8"
         style="fill:#ffffff;fill-opacity:1;fill-rule:nonzero;stroke:none"
         id="path100" /><path
         d="m 15499.8,5554.4 h 3207.9 v 1828 c 0,6.5 2.8,12.7 7.8,16.9 l 1374.4,1166 -1806.5,82.8 v -166.5 c 0,-10.4 -7.2,-19.5 -17.4,-21.7 l -2229.4,-491.7 z m 3230.1,-44.5 h -3257.8 c -6.7,0 -13.1,3.1 -17.3,8.4 -4.3,5.2 -5.9,12.1 -4.4,18.7 l 545.8,2454.7 c 1.9,8.4 8.5,15 16.9,16.8 l 2225.9,490.9 v 172 c 0,6.1 2.5,11.9 6.9,16.1 4.4,4.2 10.3,6.3 16.4,6.1 l 1886,-86.5 c 9.1,-0.4 17.1,-6.3 20,-15 3,-8.6 0.3,-18.2 -6.6,-24.1 L 18752.1,7372.1 V 5532.2 c 0,-12.3 -9.9,-22.3 -22.2,-22.3"
         style="fill:#000000;fill-opacity:1;fill-rule:nonzero;stroke:none"
         id="path102" /><path
         d="m 15880.3,7382.4 h 2849.6 l 1482.4,1260.2 h -1669.1 v 449.5 c 0,133.7 -107.5,242 -240.1,242 h -3120.6 c -132.6,0 -240,-108.3 -240,-242 v -195.9 -4.4 L 14752,8389 15880.3,7382.4"
         style="fill:#ffffff;fill-opacity:1;fill-rule:nonzero;stroke:none"
         id="path104" /><path
         d="m 15888.7,7404.6 h 2833 l 1430.1,1215.8 h -1608.6 c -12.3,0 -22.2,9.9 -22.2,22.2 v 449.5 c 0,121.2 -97.7,219.8 -217.9,219.8 h -3120.6 c -120.1,0 -217.8,-98.6 -217.8,-219.8 v -200.3 c 0,-2.7 -0.5,-5.3 -1.4,-7.8 l -185.2,-488.6 z m 2841.2,-44.4 h -2849.6 c -5.5,0 -10.7,2 -14.8,5.6 l -1128.4,1006.6 c -6.8,6.1 -9.2,15.9 -5.9,24.5 l 189,499.3 v 195.9 c 0,145.7 117.7,264.3 262.3,264.3 h 3120.6 c 144.7,0 262.3,-118.6 262.3,-264.3 v -427.3 h 1646.9 c 9.3,0 17.6,-5.8 20.8,-14.6 3.2,-8.7 0.6,-18.5 -6.5,-24.6 L 18744.3,7365.4 c -4,-3.4 -9.1,-5.2 -14.4,-5.2"
         style="fill:#000000;fill-opacity:1;fill-rule:nonzero;stroke:none"
         id="path106" /><path
         d="m 14752,8389 h 5612.5 v 507.2 H 14752 V 8389"
         style="fill:#ffffff;fill-opacity:1;fill-rule:nonzero;stroke:none"
         id="path108" /><path
         d="m 14774.2,8411.2 h 5568.1 v 462.7 h -5568.1 z m 5590.3,-44.4 H 14752 c -12.3,0 -22.3,9.9 -22.3,22.2 v 507.2 c 0,12.2 10,22.2 22.3,22.2 h 5612.5 c 12.3,0 22.2,-10 22.2,-22.2 V 8389 c 0,-12.3 -9.9,-22.2 -22.2,-22.2"
         style="fill:#000000;fill-opacity:1;fill-rule:nonzero;stroke:none"
         id="path110" /><path
         d="M 8998.02,3372.2 H 3609.03 v 7527.9 H 8998.02 V 3372.2"
         style="fill:#ffffff;fill-opacity:1;fill-rule:nonzero;stroke:none"
         id="path112" /><path
         d="M 8679.13,10131.7 H 7523.92 v 539.6 h 1155.21 v -539.6"
         style="fill:#000000;fill-opacity:1;fill-rule:nonzero;stroke:none"
         id="path114" /><path
         d="m 7546.14,3714.1 h 1088.55 v 858.6 H 7546.14 Z m 1110.77,-44.5 H 7523.92 c -12.27,0 -22.22,10 -22.22,22.3 v 903 c 0,12.3 9.95,22.2 22.22,22.2 h 1132.99 c 12.27,0 22.22,-9.9 22.22,-22.2 v -903 c 0,-12.3 -9.95,-22.3 -22.22,-22.3"
         style="fill:#000000;fill-opacity:1;fill-rule:nonzero;stroke:none"
         id="path116" /><path
         d="M 8998.02,9880.7 H 3621.94 c -12.27,0 -22.22,10 -22.22,22.2 0,12.3 9.95,22.3 22.22,22.3 h 5376.08 c 12.27,0 22.22,-10 22.22,-22.3 0,-12.2 -9.95,-22.2 -22.22,-22.2"
         style="fill:#000000;fill-opacity:1;fill-rule:nonzero;stroke:none"
         id="path118" /><path
         d="m 5284.03,9880.7 c -12.27,0 -22.22,10 -22.22,22.2 v 997.2 c 0,12.3 9.95,22.2 22.22,22.2 12.27,0 22.22,-9.9 22.22,-22.2 v -997.2 c 0,-12.2 -9.95,-22.2 -22.22,-22.2"
         style="fill:#000000;fill-opacity:1;fill-rule:nonzero;stroke:none"
         id="path120" /><path
         d="M 5055.68,10142.6 H 3815.23 c -12.27,0 -22.22,9.9 -22.22,22.2 0,12.3 9.95,22.2 22.22,22.2 h 1240.45 c 12.27,0 22.22,-9.9 22.22,-22.2 0,-12.3 -9.95,-22.2 -22.22,-22.2"
         style="fill:#000000;fill-opacity:1;fill-rule:nonzero;stroke:none"
         id="path122" /><path
         d="M 3631.24,3394.4 H 8975.8 v 7483.5 H 3631.24 Z M 8998.02,3350 H 3609.03 c -12.27,0 -22.22,10 -22.22,22.2 v 7527.9 c 0,12.3 9.95,22.2 22.22,22.2 h 5388.99 c 12.27,0 22.22,-9.9 22.22,-22.2 V 3372.2 c 0,-12.2 -9.95,-22.2 -22.22,-22.2"
         style="fill:#000000;fill-opacity:1;fill-rule:nonzero;stroke:none"
         id="path124" /><path
         d="m 6537.92,10402.1 c 0,-128.7 -104.31,-233 -232.99,-233 -128.68,0 -232.99,104.3 -232.99,233 0,128.7 104.31,233 232.99,233 128.68,0 232.99,-104.3 232.99,-233"
         style="fill:#000000;fill-opacity:1;fill-rule:nonzero;stroke:none"
         id="path126" /><path
         d="m 5872.8,10612.9 h -305.17 c -12.27,0 -22.22,9.9 -22.22,22.2 0,12.3 9.95,22.2 22.22,22.2 h 305.17 c 12.27,0 22.22,-9.9 22.22,-22.2 0,-12.3 -9.95,-22.2 -22.22,-22.2"
         style="fill:#000000;fill-opacity:1;fill-rule:nonzero;stroke:none"
         id="path128" /><path
         d="m 5872.8,10379.9 h -305.17 c -12.27,0 -22.22,9.9 -22.22,22.2 0,12.3 9.95,22.2 22.22,22.2 h 305.17 c 12.27,0 22.22,-9.9 22.22,-22.2 0,-12.3 -9.95,-22.2 -22.22,-22.2"
         style="fill:#000000;fill-opacity:1;fill-rule:nonzero;stroke:none"
         id="path130" /><path
         d="m 5872.8,10146.9 h -305.17 c -12.27,0 -22.22,10 -22.22,22.2 0,12.3 9.95,22.3 22.22,22.3 h 305.17 c 12.27,0 22.22,-10 22.22,-22.3 0,-12.2 -9.95,-22.2 -22.22,-22.2"
         style="fill:#000000;fill-opacity:1;fill-rule:nonzero;stroke:none"
         id="path132" /><path
         d="m 7064.35,10612.9 h -305.18 c -12.27,0 -22.21,9.9 -22.21,22.2 0,12.3 9.94,22.2 22.21,22.2 h 305.18 c 12.28,0 22.22,-9.9 22.22,-22.2 0,-12.3 -9.94,-22.2 -22.22,-22.2"
         style="fill:#000000;fill-opacity:1;fill-rule:nonzero;stroke:none"
         id="path134" /><path
         d="m 7064.35,10379.9 h -305.18 c -12.27,0 -22.21,9.9 -22.21,22.2 0,12.3 9.94,22.2 22.21,22.2 h 305.18 c 12.28,0 22.22,-9.9 22.22,-22.2 0,-12.3 -9.94,-22.2 -22.22,-22.2"
         style="fill:#000000;fill-opacity:1;fill-rule:nonzero;stroke:none"
         id="path136" /><path
         d="m 7064.35,10146.9 h -305.18 c -12.27,0 -22.21,10 -22.21,22.2 0,12.3 9.94,22.3 22.21,22.3 h 305.18 c 12.28,0 22.22,-10 22.22,-22.3 0,-12.2 -9.94,-22.2 -22.22,-22.2"
         style="fill:#000000;fill-opacity:1;fill-rule:nonzero;stroke:none"
         id="path138" /><path
         d="m 8448.84,7322.6 c 0,-1184.8 -960.49,-2145.3 -2145.31,-2145.3 -1184.82,0 -2145.31,960.5 -2145.31,2145.3 0,1184.9 960.49,2145.3 2145.31,2145.3 1184.82,0 2145.31,-960.4 2145.31,-2145.3"
         style="fill:#ffffff;fill-opacity:1;fill-rule:nonzero;stroke:none"
         id="path140" /><path
         d="m 6303.53,9445.7 c -1170.68,0 -2123.09,-952.4 -2123.09,-2123.1 0,-1170.6 952.41,-2123.1 2123.09,-2123.1 1170.67,0 2123.09,952.5 2123.09,2123.1 0,1170.7 -952.42,2123.1 -2123.09,2123.1 z m 0,-4290.6 C 5108.34,5155.1 4136,6127.5 4136,7322.6 c 0,1195.2 972.34,2167.6 2167.53,2167.6 1195.19,0 2167.53,-972.4 2167.53,-2167.6 0,-1195.1 -972.34,-2167.5 -2167.53,-2167.5"
         style="fill:#000000;fill-opacity:1;fill-rule:nonzero;stroke:none"
         id="path142" /><path
         d="m 8006.54,7322.6 c 0,-940.5 -762.47,-1703 -1703.01,-1703 -940.55,0 -1703.02,762.5 -1703.02,1703 0,940.6 762.47,1703 1703.02,1703 940.54,0 1703.01,-762.4 1703.01,-1703"
         style="fill:#000000;fill-opacity:1;fill-rule:nonzero;stroke:none"
         id="path144" /><path
         d="m 6303.53,5905.7 c -781.27,0 -1416.89,635.7 -1416.89,1416.9 0,281.5 82.34,553.4 238.12,786.5 6.8,10.2 20.63,12.9 30.83,6.1 10.21,-6.8 12.94,-20.6 6.12,-30.8 -150.88,-225.7 -230.64,-489.1 -230.64,-761.8 0,-756.7 615.68,-1372.4 1372.46,-1372.4 421.99,0 814.42,190 1076.68,521.2 7.61,9.7 21.6,11.3 31.21,3.7 9.62,-7.6 11.25,-21.6 3.63,-31.3 -270.73,-341.9 -675.87,-538.1 -1111.52,-538.1"
         style="fill:#ffffff;fill-opacity:1;fill-rule:nonzero;stroke:none"
         id="path146" /><path
         d="m 7414.32,7309.5 c 0,-462.1 283.58,-857.8 686.12,-1023.1 183.95,301.7 289.97,656.2 289.97,1035.5 0,370.8 -101.48,718 -278.02,1015.3 -408.85,-162.3 -698.07,-561.1 -698.07,-1027.7"
         style="fill:#ffffff;fill-opacity:1;fill-rule:nonzero;stroke:none"
         id="path148" /><path
         d="m 13989.4,12533.7 c -141.8,-116.3 -234.6,390.3 -234.6,390.3 l 587.5,424.4 377.8,424.5 c 38.8,43.6 105.5,48 149.8,9.9 45.2,-39 49.9,-107.4 10.4,-152 l -168.3,-190.2 c -23.4,-26.4 -10.9,-68.2 23.1,-77.6 52.7,-14.5 107.4,-19.3 161.8,-14 98.7,9.5 269.2,30.4 434.9,72 77.8,19.5 141.8,-53.5 92.5,-116.7 l -448.9,-264.1 c -113.8,-66.9 -305.1,-74.6 -432.6,-39.9 0,0 -114.4,-135 -240,-241.5 -101.8,-86.3 -204.1,-135.5 -313.4,-225.1"
         style="fill:#ffffff;fill-opacity:1;fill-rule:nonzero;stroke:none"
         id="path150" /><path
         d="m 13779.3,12914.2 c 26.7,-137.2 90.1,-349.1 157,-373.6 7.8,-2.9 20.5,-5 39,10.2 54.3,44.6 107,79.3 157.9,112.9 53.6,35.4 104.2,68.8 155.3,112 122.6,104.1 236.2,237.6 237.4,239 5.5,6.6 14.5,9.3 22.8,7 118,-32.1 305.8,-26.8 415.4,37.7 l 445.1,261.8 c 16.9,24.2 9.2,43.9 2.8,53.7 -12,18.5 -39.8,33.3 -74.8,24.5 -170.8,-42.8 -347.9,-63.8 -438.2,-72.6 -57,-5.5 -114.1,-0.5 -169.8,14.8 -23.4,6.4 -41.6,24.2 -48.5,47.5 -6.9,23.3 -1.5,48 14.6,66.2 l 168.4,190.2 c 15.1,17.1 22.6,39 21,61.8 -1.5,22.9 -11.9,43.7 -29.3,58.6 -34.9,30.1 -88.1,26.6 -118.7,-7.8 l -377.8,-424.5 c -1,-1.2 -2.2,-2.3 -3.5,-3.2 z m 210.1,-380.5 h 0.2 z m -42.2,-39.6 c -10,0 -18.9,2.1 -26.2,4.7 -115.5,42.4 -180.9,382.5 -188,421.2 -1.6,8.4 1.9,17 8.8,22 l 585.6,423 376.1,422.7 c 46.6,52.3 127.8,57.7 180.9,11.9 26.4,-22.8 42.3,-54.5 44.7,-89.3 2.3,-34.7 -9.1,-68.2 -32.2,-94.3 l -168.3,-190.2 c -5.9,-6.7 -7.9,-15.4 -5.3,-24 2.5,-8.6 9,-15 17.7,-17.3 50.4,-13.9 102.1,-18.4 153.7,-13.4 89.1,8.6 263.7,29.3 431.7,71.4 48.8,12.2 98,-5.2 122.8,-43.4 21.7,-33.3 18.9,-74.8 -7.4,-108.5 -1.7,-2.2 -3.8,-4 -6.2,-5.5 l -449,-264 c -119.8,-70.5 -310.2,-76 -436,-45.7 -29.8,-34.2 -128.2,-144.3 -233.4,-233.5 -53.1,-45.1 -107.2,-80.8 -159.5,-115.3 -50,-33 -101.7,-67.1 -154.2,-110.1 -20.6,-17 -40,-22.4 -56.3,-22.4"
         style="fill:#000000;fill-opacity:1;fill-rule:nonzero;stroke:none"
         id="path152" /><path
         d="m 12149.7,15474.2 c -410.3,-94.1 -700.5,-296.8 -700.5,-296.8 0,0 -627.6,-400.2 -612.7,-1163.9 11.6,-592.6 452.3,-1298 448.8,-1348.5 -38.7,-565.6 -82,-546.3 -23.5,-747.8 142,-489.2 2153,-287.4 2188.7,-63.2 32.5,203.4 -61,543.5 -14,1000.9 41.4,404.2 188.2,901.7 188.2,901.7 653.8,-374 1332.8,-326.1 1950.6,112.1 728.4,516.5 1281.3,1665.4 1281.3,1665.4 l -402.1,232.8 c 0,0 -867.3,-998.6 -1595.6,-1076.6 -433.8,-46.5 -809.4,207.2 -1028.5,402.1 -221,196.5 -489.2,333.8 -779.8,388.4 -255.7,48.2 -572.8,68.6 -900.9,-6.6"
         style="fill:#ffffff;fill-opacity:1;fill-rule:nonzero;stroke:none"
         id="path154" /><path
         d="m 12149.7,15474.2 5,-21.7 c -401.4,-92 -689.9,-291.3 -692.8,-293.4 -6.9,-4.4 -617.7,-403.4 -603.2,-1145.2 8.7,-444.7 262.1,-954.2 383.8,-1199.1 51.4,-103.4 66.2,-133.9 65,-151.3 -13.9,-203.4 -28.2,-329.2 -38.6,-421.1 -18.3,-160.6 -22.1,-194.1 14.2,-319 74.6,-256.9 719.6,-309.5 1249.2,-276.6 513.5,32 884.5,136.7 896.3,210.7 13.6,85.3 4,200.3 -7.2,333.6 -15.1,180.1 -33.9,404.4 -7.1,666 41.2,401.7 187.6,900.8 189,905.8 2,6.5 6.8,11.8 13.1,14.3 6.3,2.6 13.4,2.1 19.3,-1.3 641,-366.7 1307.3,-328.4 1926.8,110.9 665.2,471.7 1190.1,1488.9 1264.9,1638.5 l -368.3,213.2 c -111.8,-125.8 -907.4,-996.3 -1597.8,-1070.3 -433.4,-46.5 -807.8,196 -1045.7,407.6 -222.5,197.9 -488.5,330.4 -769.1,383.2 -314.7,59.2 -614.8,57 -891.8,-6.5 z m 99.2,-3880.8 c -482.3,0 -940.2,82.3 -1008.5,317.6 -38.7,133.5 -33.8,176.5 -15.7,336.4 10.4,91.5 24.6,216.7 38.5,419.1 -1.7,10.4 -30.2,67.8 -60.5,128.5 -123.2,247.8 -379.5,763.3 -388.4,1218 -15,767.3 616.6,1179 623,1183.1 2.1,1.5 297.7,205.8 707.5,299.7 283,64.9 589.1,67.3 909.9,6.9 288.5,-54.3 561.9,-190.4 790.5,-393.7 231.1,-205.6 594.3,-441.3 1011.3,-396.6 711.4,76.2 1572.6,1059.2 1581.2,1069.1 7,8 18.7,9.9 27.9,4.6 l 402.1,-232.8 c 10,-5.8 13.9,-18.4 8.9,-28.8 -5.6,-11.6 -563.7,-1160.1 -1288.4,-1674 -626.7,-444.4 -1300.3,-488.1 -1949.9,-127.1 -30.8,-108.7 -144.4,-526.5 -179.7,-870.8 -26.5,-257.6 -7.9,-479.5 7.1,-657.8 11.8,-141.7 21.2,-253.7 6.8,-344.3 -22.4,-140.5 -572.9,-225.3 -937.4,-248 -94.5,-5.9 -190.8,-9.1 -286.2,-9.1"
         style="fill:#000000;fill-opacity:1;fill-rule:nonzero;stroke:none"
         id="path156" /><path
         d="m 11684.4,11615.6 c 256.4,1159 268,2721.4 268,2721.4 0.8,59.3 49.1,106.9 108.4,106.9 h 1277.7 c 59.4,0 107.7,-47.8 108.4,-107.1 l -3.7,-2745.7 -1758.8,24.5"
         style="fill:#000000;fill-opacity:1;fill-rule:nonzero;stroke:none"
         id="path158" /><path
         d="m 12214.5,14212.8 c -2,0 -3.9,0 -5.8,0.1 -61.5,2.8 -108.8,49.4 -105.7,104 31.6,546.4 -105.4,789.8 -225.9,897.8 -73.8,66 -196.1,120.5 -266,148.3 -18.5,7.3 -18.1,33.5 0.5,40.4 39.2,14.5 90.8,33 122.7,42 25.2,7.1 143.5,53.1 301.1,-91.3 219.2,-200.7 319.1,-550.7 290.4,-1047.3 -3.1,-52.9 -52.4,-94 -111.3,-94"
         style="fill:#000000;fill-opacity:1;fill-rule:nonzero;stroke:none"
         id="path160" /><path
         d="m 13218.7,14174.1 c -1.6,0.5 -3.3,1.1 -4.9,1.8 -48,18.7 -110.7,86.4 -91.8,135.5 282.1,733.6 197.5,1043.1 128.5,1158.6 -10.2,17 7.2,37.1 25.6,29.6 33.1,-13.5 108.4,-41.3 129.5,-51.1 71.5,-33.1 273.2,-194.9 -70.6,-1217.8 -16.1,-48.1 -69.6,-71.8 -116.3,-56.6"
         style="fill:#000000;fill-opacity:1;fill-rule:nonzero;stroke:none"
         id="path162" /><path
         d="m 18057.7,13171.9 c 621.3,200.8 1550.9,1264.2 1550.9,1264.2 l -199.9,200 -1864.5,-597.1 -1323.3,677.2 968.3,1412.4 1772.8,308.3 c -464,518.5 -1452.3,822.8 -2152.4,596.5 -842,-272.1 -1383.8,-1042.6 -1404.8,-1879.7 l -6342.59,-2050 c -353.43,-114.2 -547.33,-493.4 -433.1,-846.8 114.23,-353.4 497.8,-710.6 851.22,-596.4 l 6338.17,2213.3 c 507,-666.4 1397.2,-974 2239.2,-701.9"
         style="fill:#000000;fill-opacity:1;fill-rule:nonzero;stroke:none"
         id="path164" /><path
         d="m 17318.4,17085 c -178.1,0 -348.9,-23.3 -502,-72.7 -809.6,-261.7 -1368,-1008.9 -1389.4,-1859.2 -0.2,-9.4 -6.4,-17.7 -15.4,-20.6 l -6342.56,-2050 c -341.19,-110.2 -529.06,-477.5 -418.78,-818.7 56.43,-174.6 179.17,-347.7 328.34,-462.9 164.37,-126.9 340.14,-169.3 494.89,-119.2 l 6337.61,2213.1 c 9.1,3.2 19.2,0.2 25,-7.5 515.1,-677 1405.1,-956 2214.8,-694.2 l 6.8,-21.2 -6.8,21.2 c 567.5,183.4 1409.5,1110.2 1527.2,1242.1 l -175.5,175.6 -1851.6,-593 c -5.6,-1.8 -11.7,-1.3 -16.9,1.4 l -1323.3,677.2 c -5.7,2.9 -9.8,8.1 -11.4,14.3 -1.6,6.2 -0.4,12.8 3.2,18 l 968.3,1412.4 c 3.4,5 8.7,8.3 14.6,9.4 l 1732.5,301.3 c -368.9,388.8 -1022.3,633.2 -1599.6,633.2 z M 9344.38,11617.2 c -312.82,-0.1 -629.27,301.4 -736.41,632.9 -117.81,364.5 82.89,756.9 447.4,874.7 L 15383,15170 c 28.3,862.6 597.2,1618.7 1419.8,1884.6 337.2,108.9 755.5,102.3 1177.7,-18.8 406.4,-116.6 770.2,-329.4 998,-584.1 5.4,-6 7.1,-14.4 4.4,-22.1 -2.6,-7.6 -9.2,-13.2 -17.1,-14.6 l -1763.5,-306.7 -948.8,-1383.8 1292.7,-661.6 1855.7,594.4 c 7.9,2.5 16.6,0.4 22.5,-5.5 l 200,-200 c 8.2,-8.2 8.7,-21.5 1,-30.3 -38.1,-43.6 -940.9,-1070.3 -1560.9,-1270.7 -822.4,-265.8 -1726,14.2 -2253.9,696.8 L 9487.65,11639.5 c -47.14,-15.2 -95.18,-22.3 -143.27,-22.3"
         style="fill:#ffffff;fill-opacity:1;fill-rule:nonzero;stroke:none"
         id="path166" /><path
         d="m 18257.7,12971.9 c 700.1,226.3 1192.7,797.1 1350.9,1464.2 l -1572.7,-508.3 -1323.3,677.2 676.6,1323.6 1572.8,508.3 c -518.8,448.3 -1252.3,622.8 -1952.4,396.5 -842,-272.1 -1383.8,-1042.6 -1404.8,-1879.7 l -6342.61,-2050 c -353.43,-114.2 -547.33,-493.3 -433.1,-846.8 114.23,-353.4 493.34,-547.3 846.76,-433.1 l 6342.55,2050.1 c 507.1,-666.5 1397.3,-974.1 2239.3,-702"
         style="fill:#ffffff;fill-opacity:1;fill-rule:nonzero;stroke:none"
         id="path168" /><path
         d="m 17638.9,16911.1 c -207.6,0 -417.3,-32.5 -622.5,-98.8 -809.7,-261.7 -1368,-1008.8 -1389.4,-1859.2 -0.3,-9.4 -6.4,-17.6 -15.4,-20.5 l -6342.58,-2050 c -341.21,-110.3 -529.06,-477.6 -418.78,-818.8 53.41,-165.3 168.01,-299.9 322.65,-379 154.66,-79.1 330.86,-93.2 496.13,-39.8 l 6342.58,2050 c 9,2.9 18.8,-0.2 24.5,-7.7 515,-676.9 1405.1,-955.9 2214.7,-694.2 660.6,213.5 1153.9,738.8 1326.7,1409.6 l -1534.8,-496 c -5.6,-1.9 -11.7,-1.4 -16.9,1.3 l -1323.3,677.2 c -10.9,5.6 -15.3,19 -9.7,29.9 l 676.6,1323.6 c 2.7,5.2 7.4,9.2 13,11 l 1534.7,496.1 c -367.2,305.2 -817.5,465.3 -1278.2,465.3 z M 9468.27,11568.7 c -108.5,0 -216.22,25.7 -315.61,76.5 -165.22,84.5 -287.65,228.3 -344.71,404.9 -117.82,364.5 82.89,756.9 447.4,874.7 L 15583,14970 c 28.3,862.7 597.1,1618.7 1419.8,1884.6 688.1,222.3 1425.9,72.5 1973.7,-400.9 6,-5.2 8.8,-13.3 7.2,-21.2 -1.6,-7.9 -7.3,-14.2 -14.9,-16.7 l -1564,-505.5 -662.3,-1295.6 1295.3,-662.9 1564,505.5 c 7.7,2.5 16.1,0.6 21.9,-4.8 5.9,-5.5 8.4,-13.7 6.6,-21.5 -167.2,-704.5 -677.7,-1257.8 -1365.8,-1480.2 l -6.8,21.1 6.8,-21.1 c -822.6,-265.9 -1726.3,14.2 -2254.2,697.1 L 9682.69,11602.7 c -70.35,-22.7 -142.56,-34 -214.42,-34"
         style="fill:#000000;fill-opacity:1;fill-rule:nonzero;stroke:none"
         id="path170" /><path
         d="m 11749.8,15121.9 c 0,0 -446.9,-189.7 -682.8,-961.9 -130.3,-426.3 -86.7,-1018.8 535.8,-1842.1 614.2,-812.2 2436.1,177.2 2436.1,177.2 l -40.2,608.6 c 0,0 -1003.4,-553.1 -1681.3,-235.2 -195.2,91.5 -493.4,1071.9 -523.7,1560.4 l -43.9,693"
         style="fill:#ffffff;fill-opacity:1;fill-rule:nonzero;stroke:none"
         id="path172" /><path
         d="m 12417.4,11976.5 c -358.8,0 -640.3,109.2 -830.2,325.5 -261.3,218.3 -434.2,658.9 -527.2,895.8 -31.5,80.2 -56.3,143.6 -70.7,163.6 -7.2,10 -4.9,23.9 5.1,31 10,7.2 23.8,4.9 31,-5.1 17.6,-24.5 40.8,-83.7 76,-173.2 91.7,-233.6 262.3,-668.4 515.6,-879.1 0.9,-0.7 1.8,-1.5 2.5,-2.4 659.5,-754.3 2241.8,89.9 2396.3,175.1 l -37,560.7 c -185.3,-93.6 -1134.3,-542.7 -1672.9,-219 -158.7,95.4 -385.4,715.5 -482.1,1206.1 -2.4,12.1 5.5,23.7 17.5,26.1 12,2.5 23.7,-5.5 26.1,-17.5 101.4,-514.8 330,-1097.6 461.4,-1176.6 564.5,-339.3 1648.6,230 1659.5,235.8 6.6,3.5 14.6,3.4 21.2,-0.2 6.6,-3.7 10.9,-10.5 11.4,-18 l 40.1,-608.5 c 0.6,-8.5 -3.7,-16.5 -11.1,-20.8 -4.3,-2.4 -439.9,-250.4 -956.8,-395.2 -247.8,-69.5 -474,-104.1 -675.7,-104.1"
         style="fill:#000000;fill-opacity:1;fill-rule:nonzero;stroke:none"
         id="path174" /><path
         d="m 11927.2,5957.5 -142.2,-689.1 372.4,-106.4 206,670.9 -436.2,124.6"
         style="fill:#ffffff;fill-opacity:1;fill-rule:nonzero;stroke:none"
         id="path176" /><path
         d="m 11810.9,5284.1 331.7,-94.7 192.9,628.3 -391.4,111.8 z m 346.5,-144.3 c -2,0 -4.1,0.2 -6.1,0.8 l -372.4,106.4 c -11.2,3.2 -18,14.5 -15.7,25.9 l 142.3,689 c 1.2,6.1 4.9,11.4 10.2,14.6 5.3,3.2 11.7,4 17.6,2.3 l 436.2,-124.6 c 5.7,-1.6 10.6,-5.5 13.4,-10.7 2.9,-5.3 3.5,-11.4 1.7,-17.2 l -205.9,-670.8 c -3,-9.6 -11.8,-15.7 -21.3,-15.7"
         style="fill:#000000;fill-opacity:1;fill-rule:nonzero;stroke:none"
         id="path178" /><path
         d="m 11661.8,4687.7 c 4.2,-66.3 84.5,-119.5 149.5,-129.4 225.9,-34.5 756.8,-19.9 901,-30 187.2,-13 538.7,1 552.3,121.5 16.6,147 -140.3,361.3 -515.9,478.7 -194.2,60.7 -399.6,361.6 -490.5,367 -90.9,5.3 -251.8,-232.3 -251.8,-232.3 l -258.8,88.9 c 0,0 -107.2,-328.2 -85.8,-664.4"
         style="fill:#ffffff;fill-opacity:1;fill-rule:nonzero;stroke:none"
         id="path180" /><path
         d="m 11762.2,5323.6 c -22.7,-78 -96,-355.2 -78.2,-634.5 v 0 c 3.2,-51.4 71.6,-99.8 130.6,-108.8 146.3,-22.4 419.2,-23.9 638.5,-25.1 112.8,-0.6 210.2,-1.2 260.8,-4.7 215.1,-15.1 518.5,12 528.6,101.8 16.2,143.3 -150.5,345.6 -500.4,455 -112.6,35.2 -227.8,146.6 -320.4,236.1 -65.1,62.9 -132.4,128 -164.8,129.9 -53.6,3.3 -168.2,-128.2 -232.1,-222.5 -5.6,-8.4 -16.1,-11.8 -25.6,-8.6 z m 1066.4,-820.7 c -68,0 -116.2,3.2 -117.8,3.3 -49.1,3.4 -145.9,3.9 -258,4.6 -220.7,1.2 -495.4,2.7 -644.9,25.5 -77.1,11.8 -163.4,72.5 -168.3,150 -21.4,336.6 85.8,669.4 86.9,672.7 1.9,5.6 5.9,10.3 11.2,13 5.3,2.6 11.5,3 17.1,1.1 l 242.9,-83.4 c 42.9,61.2 171.6,233.4 261.8,228 48.8,-2.9 112.5,-64.5 193.1,-142.4 89.2,-86.2 200.3,-193.5 302.8,-225.6 390.2,-122 549,-345.9 531.3,-502.4 -14.2,-125.8 -293.8,-144.4 -458.1,-144.4"
         style="fill:#000000;fill-opacity:1;fill-rule:nonzero;stroke:none"
         id="path182" /><path
         d="m 12927.6,4682 c -49.5,0 -103.8,2.9 -161.3,5.9 -85.1,4.5 -173.1,9.1 -259.6,5.1 -196.9,-9 -365.4,-1.2 -472,7 -199.4,15.3 -207.2,27.6 -211.3,34.2 -4.3,6.8 -4.6,15.5 -0.8,22.5 5.7,10.8 19.1,14.9 29.9,9.1 33.1,-8.3 309.7,-44.1 652.2,-28.4 88.6,4.1 177.7,-0.6 263.9,-5.1 129.9,-6.9 252.6,-13.3 322.9,16.9 11.2,4.9 24.3,-0.3 29.2,-11.6 4.8,-11.3 -0.4,-24.4 -11.7,-29.2 -47.3,-20.3 -109.3,-26.4 -181.4,-26.4"
         style="fill:#000000;fill-opacity:1;fill-rule:nonzero;stroke:none"
         id="path184" /><path
         d="m 12445.6,4918.4 c -5.5,0 -11.1,2 -15.4,6.2 -8.8,8.6 -9.1,22.6 -0.5,31.4 l 136.3,140.8 c 8.5,8.8 22.6,9 31.4,0.5 8.8,-8.5 9.1,-22.6 0.5,-31.4 l -136.3,-140.8 c -4.4,-4.5 -10.2,-6.7 -16,-6.7"
         style="fill:#000000;fill-opacity:1;fill-rule:nonzero;stroke:none"
         id="path186" /><path
         d="m 9907.09,5990.2 -18.96,-480.6 332.47,-81 59.3,558.2 -372.81,3.4"
         style="fill:#ffffff;fill-opacity:1;fill-rule:nonzero;stroke:none"
         id="path188" /><path
         d="m 9911.05,5526.9 290.15,-70.7 54,508.6 -326.76,3 z m 309.55,-120.5 c -1.7,0 -3.5,0.2 -5.2,0.6 l -332.52,81 c -10.28,2.5 -17.36,11.9 -16.94,22.5 l 18.95,480.6 c 0.47,11.9 10.28,21.4 22.2,21.4 0.07,0 0.13,0 0.21,0 l 372.8,-3.4 c 6.2,-0.1 12.2,-2.8 16.3,-7.5 4.2,-4.6 6.2,-10.9 5.5,-17.1 l -59.2,-558.3 c -0.7,-6.3 -4.1,-12.1 -9.3,-15.8 -3.8,-2.6 -8.2,-4 -12.8,-4"
         style="fill:#000000;fill-opacity:1;fill-rule:nonzero;stroke:none"
         id="path190" /><path
         d="m 10271.4,4554.7 c -133.3,-18.9 -350.76,-27 -608.3,0.3 -115.46,12.2 -160.48,174.2 -140.21,257.6 56.48,232.2 154.65,606.7 321.67,810.9 l 61.34,-124.7 57.9,121.6 c 7.85,14.2 21.95,23.9 38,25.9 l 124.9,-1.2 c 26.2,3.4 50.6,-14.2 56,-40.3 l 20,-96.1 106.6,124 83.2,-916.1 c 10.2,-78.4 -43.7,-150.8 -121.1,-161.9"
         style="fill:#ffffff;fill-opacity:1;fill-rule:nonzero;stroke:none"
         id="path192" /><path
         d="m 10268.2,4576.7 3.2,-22 -3.2,22 c 65,9.3 110.9,70.8 102.2,137 l -78.5,864.7 -72.4,-84.2 c -5.5,-6.4 -14.1,-9.2 -22.4,-7 -8.2,2.1 -14.4,8.7 -16.2,17 l -19.9,96 c -3.1,15 -16.9,24.7 -31.5,22.9 -1,-0.1 -2,-0.2 -3,-0.2 l -123.2,1.2 c -8.4,-1.5 -15.83,-6.8 -20.02,-14.4 l -57.32,-120.5 c -3.67,-7.6 -11.4,-12.6 -19.92,-12.6 -9.34,0.6 -16.32,4.7 -20.08,12.4 l -45.61,92.7 c -160.81,-219 -254.77,-605.4 -295.87,-774.4 -10.93,-44.9 0.22,-123.3 37.78,-176.7 22.56,-32 50.56,-50 83.19,-53.5 217.28,-23 442.65,-23.1 602.75,-0.4 z M 9987,4515.1 c -91.59,0 -201.08,4.5 -326.23,17.8 -45.29,4.8 -85,29.7 -114.85,72.1 -47.02,66.8 -58.04,157.6 -44.62,212.8 67.85,279 166.23,624.3 326.07,819.7 4.78,5.9 12.17,9 19.72,8 7.52,-0.8 14.08,-5.5 17.42,-12.2 l 41.07,-83.5 38.16,80.1 c 11.82,21.6 32.24,35.5 55.21,38.5 1.01,0.1 1.95,0.1 3.05,0.2 l 123.5,-1.2 c 36.9,3.9 71.4,-21.4 79,-58.1 l 10.8,-51.9 77.1,89.8 c 5.9,6.8 15.2,9.4 23.7,6.7 8.5,-2.7 14.5,-10.3 15.3,-19.2 l 83.2,-916.1 c 11.7,-89.4 -51.1,-173.2 -140.1,-185.9 -47.7,-6.7 -146.3,-17.6 -287.5,-17.6"
         style="fill:#000000;fill-opacity:1;fill-rule:nonzero;stroke:none"
         id="path194" /><path
         d="m 9900.94,4665.5 c -85.53,0 -178.06,7.7 -270.32,28.9 -11.95,2.8 -19.41,14.7 -16.66,26.7 2.77,11.9 14.74,19.3 26.64,16.6 312.47,-72 639.2,20.6 642.5,21.5 11.8,3.5 24.1,-3.3 27.5,-15.1 3.4,-11.8 -3.4,-24.1 -15.2,-27.5 -9.8,-2.9 -180,-51.1 -394.46,-51.1"
         style="fill:#000000;fill-opacity:1;fill-rule:nonzero;stroke:none"
         id="path196" /><path
         d="m 9824.63,5021.2 c -11.93,0 -21.79,9.5 -22.19,21.5 -0.41,12.2 9.2,22.5 21.47,22.9 l 299.69,10 c 12.1,0.7 22.6,-9.2 23,-21.4 0.4,-12.3 -9.2,-22.6 -21.5,-23 l -299.71,-10 c -0.25,0 -0.5,0 -0.76,0"
         style="fill:#000000;fill-opacity:1;fill-rule:nonzero;stroke:none"
         id="path198" /><path
         d="m 13278.4,7802.4 c -426,-1178.3 -730.1,-1765.1 -847,-1978.2 -32,-58.2 -95.7,-90.7 -161,-82.2 l -303.7,39.4 c -90,11.7 -152.6,96.3 -138.3,186.9 110.8,701.1 550.8,4113.4 433.6,4428.8 L 10376.2,5924.3 c -20.4,-47.5 -66.9,-78 -118,-77.4 l -318.57,3.6 c -70.96,0.8 -127.53,60.4 -125.67,132.1 94.07,3620.3 1144.54,4202.9 1452.34,5933.8 0.7,4.1 1662.9,-244.8 2180.6,30 7.6,4 326.5,-2774.9 -168.5,-4144"
         style="fill:#000000;fill-opacity:1;fill-rule:nonzero;stroke:none"
         id="path200" /><path
         d="m 11301.4,11088.3 c -16,0 -25.4,0.8 -26.1,0.8 -12.2,1.2 -21.1,12 -19.9,24.2 1.1,12.3 12.1,21.1 24.2,20.1 17.3,-1.7 425.3,-34.6 541.6,420.6 3,11.9 15.1,19.1 27,16 11.9,-3 19.1,-15.1 16.1,-27 -108.5,-424.2 -463.4,-454.7 -562.9,-454.7"
         style="fill:#ffffff;fill-opacity:1;fill-rule:nonzero;stroke:none"
         id="path202" /><path
         d="m 13364.4,11088.3 c -70.3,0 -316.9,31.2 -390.9,456.4 -2.1,12.1 6,23.6 18.1,25.7 12.2,2.1 23.6,-6 25.7,-18.1 78.9,-453.6 357.1,-419.4 359.8,-419.1 12.5,1.8 23.4,-6.7 25.1,-18.8 1.8,-12.2 -6.7,-23.4 -18.8,-25.2 -0.5,0 -7.3,-0.9 -19,-0.9"
         style="fill:#ffffff;fill-opacity:1;fill-rule:nonzero;stroke:none"
         id="path204" /><path
         d="m 12854.6,15214.6 87.1,451 c 6.3,30.3 31,53.2 61.5,56.7 l 175.2,20.1 c 37.4,4.3 67.4,33.3 73.3,70.9 l 39.6,251.5 c 0.1,0.4 0.3,0.7 0.7,0.9 l 83.2,45.5 c 16.6,9.1 23,29.8 14.4,46.8 l -87.7,173.2 c -17.1,33.7 -40.5,224 -77.9,222.1 0,0 -630.7,221.7 -816.2,-42.5 -49.2,-70 -54.6,-162.3 -21.4,-241.3 l 42.5,-100.8 c 44.1,-104.7 53.9,-222.4 20.2,-331 -12,-38.8 -28.9,-76.1 -50.4,-111.2 l -237,-372.9 c 172.1,-87.3 361.6,-134.1 554.1,-137 l 138.8,-2"
         style="fill:#ffffff;fill-opacity:1;fill-rule:nonzero;stroke:none"
         id="path206" /><path
         d="m 12193.7,15362.5 c 162.5,-78.3 342.5,-120.9 522.4,-123.6 l 120.2,-1.8 83.6,432.7 c 8.2,40.1 40.7,69.9 80.7,74.5 l 175.3,20.2 c 27.4,3.2 49.5,24.6 53.8,52.2 l 39.7,251.5 c 1,6.8 5.8,13.5 11.7,16.9 l 83.5,45.6 c 6,3.3 8.3,11 5.2,17.2 l -87.7,173.2 c -6.7,13.2 -12.2,37.2 -21.5,78.6 -8.5,38.3 -26,116.7 -40.1,131.7 -1.3,0.2 -2.6,0.5 -3.9,1 -6.1,2.1 -616.9,213 -790.7,-34.4 -43,-61.3 -50.3,-145.5 -19,-219.9 l 42.5,-100.8 c 47.7,-113.2 55.1,-236.1 20.9,-346.2 -12.6,-40.8 -30.4,-79.9 -52.7,-116.3 z m 660.9,-170.2 c -0.1,0 -0.2,0 -0.3,0 l -138.8,2.1 c -194.8,2.9 -389.8,51.1 -563.9,139.3 -5.6,2.9 -9.7,7.9 -11.4,14 -1.6,6 -0.7,12.5 2.7,17.8 l 237,372.9 c 20.2,32.9 36.4,68.6 48,105.9 31.1,100 24.1,212.2 -19.5,315.8 l -42.4,100.8 c -37.2,88.3 -28.2,188.9 23.6,262.7 187.9,267.6 783.1,70.9 838.5,51.8 37.7,-3.3 53.6,-66.1 75.9,-166 6.2,-27.8 13.3,-59.4 17.7,-68.2 l 87.7,-173.2 c 14.2,-27.8 3.8,-61.4 -23.5,-76.3 l -74.2,-40.6 -38.1,-241.3 c -7.4,-47.2 -45.5,-84 -92.6,-89.5 l -175.3,-20.1 c -20.9,-2.4 -37.9,-18.1 -42.2,-39.1 l -87.1,-450.8 c -2,-10.4 -11.2,-18 -21.8,-18"
         style="fill:#000000;fill-opacity:1;fill-rule:nonzero;stroke:none"
         id="path208" /><path
         d="m 12732.1,16272.8 c -32.4,81.2 -83,111.6 -73.5,157.8 5.7,27.8 29.6,45.3 43.2,55.2 67.5,49.4 156.2,19.2 334.4,-14.7 221.2,-42 246.4,-48.7 288.2,-32 106.1,42.3 166.4,174.1 171,282.4 1.3,30.4 4,191.8 -131.8,275.1 -98,60.1 -229.2,55.6 -335.3,-11.1 -9.2,31.4 -28.5,75.5 -70.6,97.2 -100,51.5 -249,-64 -301.2,-104.5 -48.2,-37.4 -134.1,-115.4 -195.7,-252.7 -19.7,11.1 -93.5,49.7 -174,23.8 -119.7,-38.6 -149.1,-186.2 -151.7,-200.2 -29.9,-163.1 102.9,-305.4 203.2,-412.8 55.3,-59.2 84.3,-81.8 116.8,-103.7 19.2,-12.9 44,-13.9 64.2,-2.6 0.3,0.2 0.7,0.4 1.1,0.6 26.5,14.8 35.4,49 19.4,75.1 l -5.1,8.3 c -19.1,31.2 -32.2,66 -36.2,102.5 -3.2,29.1 -0.9,59.6 17.7,75.4 29.9,25.3 80.8,8.6 88.1,6.2 37.3,-12.3 60.7,-40.2 75.1,-66.7 15.4,-28.4 67.1,5.4 52.7,41.4"
         style="fill:#000000;fill-opacity:1;fill-rule:nonzero;stroke:none"
         id="path210" /><path
         d="m 13202.2,17015.9 537.8,116 c 98.4,21.2 186.9,-103.7 151.7,-218.3 -24,-78 -99.5,-162.2 -280.4,-231.1 -476.8,-181.5 -779.8,-255.8 -779.8,-255.8 l 370.7,589.2"
         style="fill:#ffffff;fill-opacity:1;fill-rule:nonzero;stroke:none"
         id="path212" /><path
         d="m 13216,16996.2 -335.7,-533.6 c 107.4,29.4 368,105.5 723.1,240.7 150.6,57.3 240.4,130.3 267,216.8 16.6,53.7 2.9,114.9 -34.7,155.9 -26.2,28.6 -59.5,41 -91,34.2 z m -384.5,-591.8 c -7,0 -13.8,3.4 -18,9.3 -5.3,7.3 -5.6,17.1 -0.8,24.8 l 370.7,589.2 c 3.2,5.1 8.3,8.7 14.1,9.9 l 537.8,116 c 47.4,10.2 96,-7.1 133.1,-47.5 48.1,-52.5 65.6,-130.6 44.5,-199.1 -30.8,-100.3 -129.6,-182.8 -293.7,-245.2 -472.6,-180 -779.3,-256 -782.4,-256.7 -1.7,-0.5 -3.5,-0.7 -5.3,-0.7"
         style="fill:#000000;fill-opacity:1;fill-rule:nonzero;stroke:none"
         id="path214" /><path
         d="m 12333.7,16224 c 0,0 -471.8,468.5 -67.3,813.2 523.3,445.9 841,165.8 978.5,-27.3 54.4,-76.5 59.2,-173.3 11.1,-254 l -1.5,-2.5 c -83.1,-139.6 -216.4,-250.5 -378.1,-314.6 l -542.7,-214.8"
         style="fill:#ffffff;fill-opacity:1;fill-rule:nonzero;stroke:none"
         id="path216" /><path
         d="m 12790.9,17253.6 c -156.8,0 -328.1,-78.3 -510.1,-233.3 -99,-84.4 -151.4,-183.9 -155.7,-295.5 -8.5,-219.5 169.9,-426.6 214.4,-474.6 l 528.7,209.3 c 156.5,62 287,170.4 367.2,305.3 l 1.5,2.5 c 43.1,72.3 39.2,160.4 -10.1,229.7 -73.4,103.1 -198.9,230.8 -379.7,253.2 -18.5,2.3 -37.3,3.4 -56.2,3.4 z m -457.2,-1051.8 c -5.7,0 -11.4,2.2 -15.6,6.5 -10.1,10 -247.7,249.1 -237.4,518 4.7,124.7 62.4,235 171.3,327.8 213.9,182.3 416.1,263 600.6,240.2 196.8,-24.4 331.8,-161.1 410.4,-271.5 59.7,-83.9 64.3,-190.5 12.1,-278.3 l -1.5,-2.5 c -85.2,-143.2 -223.4,-258.2 -389,-323.8 l -542.7,-214.8 c -2.7,-1.1 -5.4,-1.6 -8.2,-1.6"
         style="fill:#000000;fill-opacity:1;fill-rule:nonzero;stroke:none"
         id="path218" /><path
         d="m 12301.3,16209.8 139.6,56.6 c -4.4,14.2 -18.5,61 -25.4,76.9 -101,233.5 -210.5,193.5 -270.7,149 58.7,-148.8 156.5,-282.5 156.5,-282.5"
         style="fill:#000000;fill-opacity:1;fill-rule:nonzero;stroke:none"
         id="path220" /><path
         d="m 14031.9,13100.8 412.2,355.8 286.3,321.7 c 38.8,43.6 105.5,48 149.8,9.9 45.2,-39 49.9,-107.4 10.4,-152 l -168.4,-190.2 c -23.3,-26.4 -10.9,-68.2 23.2,-77.6 52.6,-14.4 107.4,-19.3 161.7,-14 98.8,9.5 269.2,30.4 435,72 77.8,19.5 141.8,-53.5 92.5,-116.7 l -449,-264.1 c -88.8,-52.2 -191.1,-74.4 -292.4,-65.6 -44,3.8 -95.7,9.7 -150.8,16.8 -27.7,3.5 -69.6,-80.1 -163.3,-169 -124.7,-118.4 -312.2,-205.2 -312.2,-205.2 l -35,478.2"
         style="fill:#ffffff;fill-opacity:1;fill-rule:nonzero;stroke:none"
         id="path222" /><path
         d="m 14050.3,12558.1 c -8.4,0 -16.5,4.9 -20.2,13 -5.1,11.2 -0.2,24.4 11,29.5 229.9,105 492.3,416.2 494.9,419.4 5.3,6.2 13.6,9.1 21.5,7.5 l 103.4,-21 c 107.5,-18 219,2.7 313.5,58.3 l 445,261.8 c 17,24.2 9.3,43.9 2.9,53.7 -12.1,18.5 -39.8,33.3 -74.8,24.5 -170.9,-42.8 -347.9,-63.8 -438.3,-72.6 -56.9,-5.4 -114.1,-0.5 -169.7,14.8 -23.5,6.5 -41.6,24.2 -48.5,47.5 -6.9,23.3 -1.5,48 14.6,66.2 l 168.3,190.2 c 15.1,17.1 22.6,39.1 21.1,61.8 -1.6,22.9 -12,43.7 -29.3,58.6 -34.9,30.1 -88.1,26.6 -118.7,-7.7 l -345,-387.7 c -8.5,-8.5 -187.5,-184.9 -358.1,-293.9 -10.3,-6.5 -24.1,-3.5 -30.7,6.8 -6.6,10.4 -3.6,24.1 6.8,30.7 166.5,106.4 348,285.1 349.8,286.9 l 344,386.7 c 46.6,52.4 127.7,57.7 180.9,11.9 26.4,-22.8 42.3,-54.5 44.6,-89.2 2.4,-34.8 -9,-68.3 -32.1,-94.4 l -168.3,-190.2 c -6,-6.7 -7.9,-15.4 -5.3,-24 2.5,-8.6 9,-15 17.6,-17.3 50.5,-13.9 102.2,-18.4 153.8,-13.4 89.1,8.6 263.6,29.3 431.7,71.4 48.7,12.2 98,-5.3 122.8,-43.4 21.7,-33.2 18.8,-74.8 -7.4,-108.5 -1.7,-2.2 -3.8,-4 -6.3,-5.5 l -448.9,-264 c -103.4,-60.9 -225.6,-83.5 -344,-63.7 l -91.4,18.5 c -48.4,-56.2 -284.1,-321.6 -502,-421.1 -3,-1.4 -6.1,-2 -9.2,-2.1"
         style="fill:#000000;fill-opacity:1;fill-rule:nonzero;stroke:none"
         id="path224" /><path
         d="m 4314.44,19236.3 c -5.69,0 -11.37,2.2 -15.71,6.5 l -96.81,96.8 c -8.68,8.6 -8.68,22.7 -0.01,31.4 8.68,8.7 22.75,8.7 31.43,0 l 96.81,-96.7 c 8.68,-8.7 8.68,-22.8 0.01,-31.4 -4.34,-4.4 -10.03,-6.6 -15.72,-6.6"
         style="fill:#000000;fill-opacity:1;fill-rule:nonzero;stroke:none"
         id="path226" /><path
         d="m 4653.29,18897.8 c -5.69,0 -11.38,2.1 -15.72,6.5 l -96.81,96.7 c -8.68,8.7 -8.68,22.8 -0.01,31.4 8.68,8.7 22.76,8.7 31.43,0 l 96.81,-96.7 c 8.68,-8.7 8.68,-22.7 0.01,-31.4 -4.34,-4.4 -10.03,-6.5 -15.71,-6.5"
         style="fill:#000000;fill-opacity:1;fill-rule:nonzero;stroke:none"
         id="path228" /><path
         d="m 4217.63,18897.8 c -5.68,0 -11.38,2.1 -15.72,6.5 -8.67,8.7 -8.67,22.7 0.01,31.4 l 96.81,96.7 c 8.68,8.7 22.75,8.7 31.43,0 8.67,-8.6 8.67,-22.7 -0.01,-31.4 l -96.81,-96.7 c -4.34,-4.4 -10.02,-6.5 -15.71,-6.5"
         style="fill:#000000;fill-opacity:1;fill-rule:nonzero;stroke:none"
         id="path230" /><path
         d="m 4556.47,19236.3 c -5.68,0 -11.38,2.2 -15.72,6.6 -8.67,8.6 -8.67,22.7 0.01,31.4 l 96.81,96.7 c 8.68,8.7 22.76,8.7 31.43,0 8.67,-8.7 8.67,-22.8 -0.01,-31.4 l -96.81,-96.8 c -4.34,-4.3 -10.02,-6.5 -15.71,-6.5"
         style="fill:#000000;fill-opacity:1;fill-rule:nonzero;stroke:none"
         id="path232" /><path
         d="m 19824.8,20989.1 c -152.2,0 -276,-123.8 -276,-276 0,-152.2 123.8,-276 276,-276 152.1,0 275.9,123.8 275.9,276 0,152.2 -123.8,276 -275.9,276 z m 0,-596.4 c -176.7,0 -320.4,143.7 -320.4,320.4 0,176.7 143.7,320.4 320.4,320.4 176.6,0 320.4,-143.7 320.4,-320.4 0,-176.7 -143.8,-320.4 -320.4,-320.4"
         style="fill:#000000;fill-opacity:1;fill-rule:nonzero;stroke:none"
         id="path234" /></g></g></svg>
