<svg id="visual" viewBox="0 0 960 300" width="960" height="300" xmlns="http://www.w3.org/2000/svg" xmlns:xlink="http://www.w3.org/1999/xlink" version="1.1"><path d="M0 202L22.8 203.2C45.7 204.3 91.3 206.7 137 209.8C182.7 213 228.3 217 274 216.2C319.7 215.3 365.3 209.7 411.2 209.3C457 209 503 214 548.8 212.3C594.7 210.7 640.3 202.3 686 203.2C731.7 204 777.3 214 823 218.5C868.7 223 914.3 222 937.2 221.5L960 221L960 301L937.2 301C914.3 301 868.7 301 823 301C777.3 301 731.7 301 686 301C640.3 301 594.7 301 548.8 301C503 301 457 301 411.2 301C365.3 301 319.7 301 274 301C228.3 301 182.7 301 137 301C91.3 301 45.7 301 22.8 301L0 301Z" fill="#ffffff"></path><path d="M0 196L22.8 200.3C45.7 204.7 91.3 213.3 137 220.3C182.7 227.3 228.3 232.7 274 234.3C319.7 236 365.3 234 411.2 227.2C457 220.3 503 208.7 548.8 206.7C594.7 204.7 640.3 212.3 686 214.3C731.7 216.3 777.3 212.7 823 209.7C868.7 206.7 914.3 204.3 937.2 203.2L960 202L960 301L937.2 301C914.3 301 868.7 301 823 301C777.3 301 731.7 301 686 301C640.3 301 594.7 301 548.8 301C503 301 457 301 411.2 301C365.3 301 319.7 301 274 301C228.3 301 182.7 301 137 301C91.3 301 45.7 301 22.8 301L0 301Z" fill="#fafafa"></path><path d="M0 236L22.8 237.7C45.7 239.3 91.3 242.7 137 241.8C182.7 241 228.3 236 274 232.7C319.7 229.3 365.3 227.7 411.2 228.5C457 229.3 503 232.7 548.8 233.5C594.7 234.3 640.3 232.7 686 235.3C731.7 238 777.3 245 823 246.3C868.7 247.7 914.3 243.3 937.2 241.2L960 239L960 301L937.2 301C914.3 301 868.7 301 823 301C777.3 301 731.7 301 686 301C640.3 301 594.7 301 548.8 301C503 301 457 301 411.2 301C365.3 301 319.7 301 274 301C228.3 301 182.7 301 137 301C91.3 301 45.7 301 22.8 301L0 301Z" fill="#f5f5f5"></path><path d="M0 269L22.8 265.2C45.7 261.3 91.3 253.7 137 251.3C182.7 249 228.3 252 274 254.8C319.7 257.7 365.3 260.3 411.2 259.8C457 259.3 503 255.7 548.8 254.3C594.7 253 640.3 254 686 253.2C731.7 252.3 777.3 249.7 823 249.8C868.7 250 914.3 253 937.2 254.5L960 256L960 301L937.2 301C914.3 301 868.7 301 823 301C777.3 301 731.7 301 686 301C640.3 301 594.7 301 548.8 301C503 301 457 301 411.2 301C365.3 301 319.7 301 274 301C228.3 301 182.7 301 137 301C91.3 301 45.7 301 22.8 301L0 301Z" fill="#f0f0f0"></path><path d="M0 272L22.8 274C45.7 276 91.3 280 137 280.7C182.7 281.3 228.3 278.7 274 279C319.7 279.3 365.3 282.7 411.2 281C457 279.3 503 272.7 548.8 271C594.7 269.3 640.3 272.7 686 275.8C731.7 279 777.3 282 823 280.3C868.7 278.7 914.3 272.3 937.2 269.2L960 266L960 301L937.2 301C914.3 301 868.7 301 823 301C777.3 301 731.7 301 686 301C640.3 301 594.7 301 548.8 301C503 301 457 301 411.2 301C365.3 301 319.7 301 274 301C228.3 301 182.7 301 137 301C91.3 301 45.7 301 22.8 301L0 301Z" fill="#ececec"></path></svg>