<svg id="visual" viewBox="0 0 960 100" width="960" height="100" xmlns="http://www.w3.org/2000/svg" xmlns:xlink="http://www.w3.org/1999/xlink" version="1.1"><path d="M0 34L22.8 34.8C45.7 35.7 91.3 37.3 137 39.5C182.7 41.7 228.3 44.3 274 43.8C319.7 43.3 365.3 39.7 411.2 39.3C457 39 503 42 548.8 40.8C594.7 39.7 640.3 34.3 686 35C731.7 35.7 777.3 42.3 823 45.3C868.7 48.3 914.3 47.7 937.2 47.3L960 47L960 101L937.2 101C914.3 101 868.7 101 823 101C777.3 101 731.7 101 686 101C640.3 101 594.7 101 548.8 101C503 101 457 101 411.2 101C365.3 101 319.7 101 274 101C228.3 101 182.7 101 137 101C91.3 101 45.7 101 22.8 101L0 101Z" fill="#ffffff"></path><path d="M0 31L22.8 33.8C45.7 36.7 91.3 42.3 137 46.8C182.7 51.3 228.3 54.7 274 55.7C319.7 56.7 365.3 55.3 411.2 50.8C457 46.3 503 38.7 548.8 37.3C594.7 36 640.3 41 686 42.3C731.7 43.7 777.3 41.3 823 39.5C868.7 37.7 914.3 36.3 937.2 35.7L960 35L960 101L937.2 101C914.3 101 868.7 101 823 101C777.3 101 731.7 101 686 101C640.3 101 594.7 101 548.8 101C503 101 457 101 411.2 101C365.3 101 319.7 101 274 101C228.3 101 182.7 101 137 101C91.3 101 45.7 101 22.8 101L0 101Z" fill="#fafafa"></path><path d="M0 57L22.8 58.2C45.7 59.3 91.3 61.7 137 61.2C182.7 60.7 228.3 57.3 274 55C319.7 52.7 365.3 51.3 411.2 51.8C457 52.3 503 54.7 548.8 55.3C594.7 56 640.3 55 686 56.7C731.7 58.3 777.3 62.7 823 63.5C868.7 64.3 914.3 61.7 937.2 60.3L960 59L960 101L937.2 101C914.3 101 868.7 101 823 101C777.3 101 731.7 101 686 101C640.3 101 594.7 101 548.8 101C503 101 457 101 411.2 101C365.3 101 319.7 101 274 101C228.3 101 182.7 101 137 101C91.3 101 45.7 101 22.8 101L0 101Z" fill="#f5f5f5"></path><path d="M0 79L22.8 76.5C45.7 74 91.3 69 137 67.5C182.7 66 228.3 68 274 69.8C319.7 71.7 365.3 73.3 411.2 72.8C457 72.3 503 69.7 548.8 68.8C594.7 68 640.3 69 686 68.7C731.7 68.3 777.3 66.7 823 66.7C868.7 66.7 914.3 68.3 937.2 69.2L960 70L960 101L937.2 101C914.3 101 868.7 101 823 101C777.3 101 731.7 101 686 101C640.3 101 594.7 101 548.8 101C503 101 457 101 411.2 101C365.3 101 319.7 101 274 101C228.3 101 182.7 101 137 101C91.3 101 45.7 101 22.8 101L0 101Z" fill="#f0f0f0"></path><path d="M0 81L22.8 82.3C45.7 83.7 91.3 86.3 137 86.7C182.7 87 228.3 85 274 85.2C319.7 85.3 365.3 87.7 411.2 86.7C457 85.7 503 81.3 548.8 80.3C594.7 79.3 640.3 81.7 686 83.8C731.7 86 777.3 88 823 86.8C868.7 85.7 914.3 81.3 937.2 79.2L960 77L960 101L937.2 101C914.3 101 868.7 101 823 101C777.3 101 731.7 101 686 101C640.3 101 594.7 101 548.8 101C503 101 457 101 411.2 101C365.3 101 319.7 101 274 101C228.3 101 182.7 101 137 101C91.3 101 45.7 101 22.8 101L0 101Z" fill="#ececec"></path></svg>